<svg xmlns="http://www.w3.org/2000/svg" version="1.1" xmlns:xlink="http://www.w3.org/1999/xlink" xmlns:svgjs="http://svgjs.com/svgjs" width="1440" height="560" preserveAspectRatio="none" viewBox="0 0 1440 560"><g mask="url(&quot;#SvgjsMask2184&quot;)" fill="none"><rect width="1440" height="560" x="0" y="0" fill="rgba(225, 199, 224, 1)"></rect><path d="M 0,209 C 57.6,185.8 172.8,79.2 288,93 C 403.2,106.8 460.8,289.8 576,278 C 691.2,266.2 748.8,47.4 864,34 C 979.2,20.6 1036.8,215 1152,211 C 1267.2,207 1382.4,53.4 1440,14L1440 560L0 560z" fill="rgba(198, 123, 206, 1)"></path><path d="M 0,556 C 41.2,528.4 123.6,432 206,418 C 288.4,404 329.6,495 412,486 C 494.4,477 535.6,374.4 618,373 C 700.4,371.6 741.6,494.8 824,479 C 906.4,463.2 947.6,296 1030,294 C 1112.4,292 1154,452.2 1236,469 C 1318,485.8 1399.2,396.2 1440,378L1440 560L0 560z" fill="rgba(199, 82, 199, 1)"></path></g><defs><mask id="SvgjsMask2184"><rect width="1440" height="560" fill="#ffffff"></rect></mask></defs></svg>